# AST/ASF file generated using VICON BodyLanguage
# -----------------------------------------------
:version 1.10
:name VICON
:units
  mass 1.0
  length 0.45
  angle deg
:documentation
   .ast/.asf automatically generated from VICON data using
   VICON BodyBuilder and BodyLanguage model FoxedUp or BRILLIANT.MOD
:root
   order TX TY TZ RX RY RZ
   axis XYZ
   position 0 0 0  
   orientation 0 0 0 
:bonedata
  begin
     id 1 
     name lhipjoint
     direction 0.547975 -0.797114 0.253638 
     length 2.36201 
     axis 0 0 0  XYZ
  end
  begin
     id 2 
     name lfemur
     direction 0.34202 -0.939693 0  
     length 7.69075  
     axis 0 0 20  XYZ
    dof rx ry rz
    limits (-160.0 20.0)
           (-70.0 70.0)
           (-60.0 70.0)
  end
  begin
     id 3 
     name ltibia
     direction 0.34202 -0.939693 0   
     length 7.91399   
     axis 0 0 20   XYZ
    dof rx
    limits (-10.0 170.0)
  end
  begin
     id 4 
     name lfoot
     direction 0.0705293 -0.193778 0.978507   
     length 2.13618   
     axis -90 7.62852e-016 20   XYZ
    dof rx rz
    limits (-45.0 90.0)
           (-70.0 20.0)
  end
  begin
     id 5 
     name ltoes
     direction 1.53592e-011 -4.21925e-011 1   
     length 1.07518   
     axis -90 7.62852e-016 20   XYZ
    dof rx
    limits (-90.0 20.0)
  end
  begin
     id 6 
     name rhipjoint
     direction -0.57 -0.782963 0.249136   
     length 2.4047  
     axis 0 0 0  XYZ 
  end
  begin
     id 7 
     name rfemur
     direction -0.34202 -0.939693 0   
     length 7.51486   
     axis 0 0 -20   XYZ
    dof rx ry rz
    limits (-160.0 20.0)
           (-70.0 70.0)
           (-70.0 60.0)
  end
  begin
     id 8 
     name rtibia
     direction -0.34202 -0.939693 0   
     length 8.08317   
     axis 0 0 -20   XYZ
    dof rx
    limits (-10.0 170.0)
 end
 begin
     id 9 
     name rfoot
     direction -0.104954 -0.281256 0.953876   
     length 2.30343  
     axis -90 -7.62852e-016 -20   XYZ
    dof rx rz
    limits (-45.0 90.0)
           (-20.0 70.0)
  end
  begin
     id 10 
     name rtoes
     direction -1.53556e-011 -4.21922e-011 1   
     length 1.14803   
     axis -90 -7.62852e-016 -20   XYZ
    dof rx
    limits (-90.0 20.0)
  end
  begin
     id 11 
     name lowerback
     direction -0.0152855 0.99353 -0.11254   
     length 2.05311   
     axis 0 0 0   XYZ
    dof rx ry rz
    limits (-20.0 45.0)
           (-30.0 30.0)
           (-30.0 30.0)
  end
  begin
     id 12 
     name upperback
     direction -0.00157509 0.999443 -0.033332   
     length 2.06353   
     axis 0 0 0   XYZ
    dof rx ry rz
    limits (-20.0 45.0)
           (-30.0 30.0)
           (-30.0 30.0)
  end
  begin
     id 13 
     name thorax
     direction 0.00577788 0.999804 0.0189484   
     length 2.08472   
     axis 0 0 0   XYZ
    dof rx ry rz
    limits (-20.0 45.0)
           (-30.0 30.0)
           (-30.0 30.0)
  end
  begin
     id 14 
     name lowerneck
     direction -1.09301e-005 0.994719 0.10264   
     length 1.76249   
     axis 0 0 0   XYZ
    dof rx ry rz
    limits (-20.0 45.0)
           (-30.0 30.0)
           (-30.0 30.0)
  end
  begin
     id 15 
     name upperneck
     direction 0.0495018 0.988526 -0.142706   
     length 1.77897   
     axis 0 0 0   XYZ
    dof rx ry rz
    limits (-20.0 45.0)
           (-30.0 30.0)
           (-30.0 30.0)
  end
  begin
     id 16
     name head
     direction 0.0142736 0.998114 -0.0597101  
     length 1.78934  
     axis 0 0 0   XYZ
    dof rx ry rz
    limits (-20.0 45.0)
           (-30.0 30.0)
           (-30.0 30.0)
  end
  begin
     id 17 
     name lclavicle
     direction 0.918111 0.396107 -0.0130883  
     length 3.37276  
     axis 0 0 0   XYZ
    dof ry rz
    limits (-20.0 10.0)
           (0.0 20.0)
  end
  begin
     id 18 
     name lhumerus
     direction 1 -4.48975e-011 -3.26108e-027   
     length 5.34298   
     axis 180 -30 -90   XYZ
    dof rx ry rz
    limits (-60.0 90.0)
           (-90.0 90.0)
           (-90.0 90.0)
  end
  begin
     id 19
     name lradius
     direction 1 -4.48964e-011 -8.84413e-028   
     length 3.67262   
     axis 180 -30 -90   XYZ
    dof rx
    limits (-10.0 170.0)
  end
  begin
     id 20
     name lwrist
     direction 1 -4.48991e-011 -1.24264e-027   
     length 1.83631   
     axis -2.17013e-015 90 90   XYZ
    dof ry
    limits (-180.0 0.0)
 end
  begin
     id 21 
     name lhand
     direction 1 -4.48855e-011 -2.48528e-027   
     length 0.599298   
     axis 1.58582e-015 90 90   XYZ
    dof rx rz
    limits (-90.0 90.0)
           (-45.0 45.0)
  end
  begin
     id 22 
     name lfingers
     direction 1 -4.48811e-011 -4.97056e-027   
     length 0.48317   
     axis 3.17164e-015 90 90   XYZ
    dof rx
    limits (0.0 90.0)
  end
  begin
     id 23
     name lthumb
     direction 0.707107 -6.34882e-011 0.707107   
     length 0.693738   
     axis -90 45 2.85299e-015   XYZ
    dof rx rz
    limits (-45.0 45.0)
           (-45.0 45.0)
  end
  begin
     id 24 
     name rclavicle
     direction -0.920511 0.384752 -0.0680135   
     length 3.43787  
     axis 0 0 0   XYZ 
    dof ry rz
    limits (-10.0 20.0)
           (-20.0 0.0)
  end
  begin
     id 25 
     name rhumerus
     direction -0.999976 -0.00330524 0.00603274  
     length 5.5498   
     axis 180 30 90   XYZ
    dof rx ry rz
    limits (-90.0 60.0)
           (-90.0 90.0)
           (-90.0 90.0)
  end
  begin
     id 26 
     name rradius
     direction -1 -4.48967e-011 8.62438e-027   
     length 3.69401   
     axis 180 30 90   XYZ
    dof rx
    limits (-10.0 170.0)
  end
  begin
     id 27 
     name rwrist
     direction -1 -4.4897e-011 9.54866e-027   
     length 1.84701   
     axis -7.69462e-015 -90 -90   XYZ
    dof ry
    limits (-180.0 0.0)
  end
  begin
     id 28
     name rhand
     direction -1 -4.48982e-011 1.90973e-026   
     length 0.638113   
     axis -1.21857e-014 -90 -90   XYZ
    dof rx rz
    limits (-90.0 90.0)
           (-45.0 45.0)
  end
  begin
     id 29
     name rfingers
     direction -1 -4.48936e-011 3.81946e-026   
     length 0.514463   
     axis -2.43714e-014 -90 -90   XYZ
    dof rx
    limits (0.0 90.0)
  end
  begin
     id 30
     name rthumb
     direction -0.707107 -6.34942e-011 0.707107   
     length 0.738669   
     axis -90 -45 -2.85299e-015   XYZ
    dof rx rz
    limits (-45.0 45.0)
           (-45.0 45.0)
  end
:hierarchy
  begin
    root lhipjoint rhipjoint lowerback
    lhipjoint lfemur
    lfemur ltibia
    ltibia lfoot
    lfoot ltoes
    rhipjoint rfemur
    rfemur rtibia
    rtibia rfoot
    rfoot rtoes
    lowerback upperback
    upperback thorax
    thorax lowerneck lclavicle rclavicle
    lowerneck upperneck
    upperneck head
    lclavicle lhumerus
    lhumerus lradius
    lradius lwrist
    lwrist lhand lthumb
    lhand lfingers
    rclavicle rhumerus
    rhumerus rradius
    rradius rwrist
    rwrist rhand rthumb
    rhand rfingers
  end

#!OML:ASF F:\twosubjects\two\Thursday\Session 1\Rory.ASF
:FULLY-SPECIFIED
:DEGREES
17
root 16.6174 18.8 13.6645 -174.818 2.552 179.062
lowerback 1.21111 2.47546 -0.253723
upperback 1.66856 3.33799 -0.195297
thorax 1.02771 1.68273 -0.0674007
lowerneck -5.62427 5.55069 7.13968
upperneck -2.603 6.71504 0.163762
head 0.366887 3.18107 -0.985647
rclavicle 4.08006e-014 -3.18055e-015
rhumerus -39.8976 -17.256 -76.7517
rradius 30.9812
rwrist 16.8991
rhand -20.0962 17.6532
rfingers 7.12502
rthumb 6.24693 -12.2347
lclavicle 4.08006e-014 -3.18055e-015
lhumerus -61.1592 36.4566 42.4465
lradius 28.83
lwrist 22.6831
lhand 4.88633 27.7955
lfingers 7.12502
lthumb 30.2615 55.3351
rfemur -13.0419 5.35119 24.1789
rtibia 32.3495
rfoot -14.6233 -5.89431
rtoes 2.4374
lfemur -24.7241 8.0158 -20.0214
ltibia 67.2716
lfoot -1.45237 6.06856
ltoes -3.18716
18
root 16.6126 18.8015 13.5236 -175.041 2.45331 179.037
lowerback 1.42235 2.56812 -0.313508
upperback 1.91458 3.47328 -0.190635
thorax 1.15799 1.75442 -0.0328711
lowerneck -5.21315 5.70542 6.81414
upperneck -3.48544 6.97315 0.108893
head 0.0218704 3.27904 -0.965532
rclavicle 4.53229e-014 1.19271e-015
rhumerus -39.3387 -15.9639 -77.3747
rradius 32.3664
rwrist 15.1386
rhand -19.7864 16.3983
rfingers 7.12502
rthumb 6.54606 -13.4806
lclavicle 4.53229e-014 1.19271e-015
lhumerus -62.0511 35.1125 41.391
lradius 29.2275
lwrist 22.1315
lhand 5.14983 27.5801
lfingers 7.12502
lthumb 30.5129 55.0733
rfemur -12.2907 5.16193 24.2086
rtibia 32.3612
rfoot -14.7676 -5.83086
rtoes 2.31141
lfemur -25.5875 7.32193 -20.0381
ltibia 66.5898
lfoot -2.03436 5.72583
ltoes -1.37352
19
root 16.6084 18.8034 13.387 -174.96 2.96527 179.027
lowerback 1.48922 2.95011 -0.413367
upperback 1.95061 3.9857 -0.293556
thorax 1.1578 2.01127 -0.087153
lowerneck -4.85668 5.74916 6.68564
upperneck -3.94024 7.07027 0.121091
head -0.179995 3.31313 -0.955822
rclavicle -1.36416e-014 9.93923e-016
rhumerus -38.9913 -15.1633 -77.8342
rradius 33.63
rwrist 13.8238
rhand -19.2096 14.6564
rfingers 7.12502
rthumb 7.10282 -15.2044
lclavicle -1.36416e-014 9.93923e-016
lhumerus -62.6432 33.5238 40.397
lradius 29.5381
lwrist 21.5813
lhand 6.00871 27.1307
lfingers 7.12502
lthumb 31.3316 54.4684
rfemur -11.8998 5.28901 24.1271
rtibia 32.2656
rfoot -14.6086 -5.43814
rtoes 2.08828
lfemur -26.6854 7.15928 -20.1056
ltibia 65.7112
lfoot -2.84141 5.4781
ltoes -0.994751
20
root 16.6072 18.8223 13.2408 -174.618 3.49563 178.94
lowerback 1.5793 3.43377 -0.66941
upperback 1.70818 4.61912 -0.444054
thorax 0.850974 2.32358 -0.118279
lowerneck -4.73832 5.63365 6.77754
upperneck -4.00573 6.9276 0.0271622
head -0.217155 3.24158 -1.00808
rclavicle -1.76421e-014 -3.97569e-015
rhumerus -39.1602 -14.6621 -78.1016
rradius 35.0784
rwrist 12.8281
rhand -19.4077 13.9649
rfingers 7.12502
rthumb 6.91164 -15.9023
lclavicle -1.76421e-014 -3.97569e-015
lhumerus -63.1684 31.6457 39.4408
lradius 29.8537
lwrist 20.9104
lhand 5.96993 26.9927
lfingers 7.12502
lthumb 31.2947 54.3376
rfemur -11.6855 5.38555 23.9536
rtibia 32.0501
rfoot -14.3521 -5.16196
rtoes 1.2399
lfemur -27.9784 7.10115 -20.2887
ltibia 64.6889
lfoot -3.62722 5.4661
ltoes -4.03864
21
root 16.6023 18.8508 13.0893 -174.617 3.42523 179.117
lowerback 1.999 3.68588 -0.446837
upperback 1.62092 4.954 -0.531371
thorax 0.553011 2.49473 -0.366842
lowerneck -4.7542 5.50193 6.91636
upperneck -4.2981 6.73929 -0.180825
head -0.298544 3.13494 -1.10471
rclavicle -7.75509e-014 1.17283e-014
rhumerus -39.2898 -13.9965 -78.4278
rradius 36.5767
rwrist 11.732
rhand -20.6974 13.5967
rfingers 7.12502
rthumb 5.66651 -16.3076
lclavicle -7.75509e-014 1.17283e-014
lhumerus -63.6307 29.9669 38.3544
lradius 30.112
lwrist 19.6667
lhand 5.53253 26.9537
lfingers 7.12502
lthumb 30.8778 54.3784
rfemur -10.9615 5.1419 24.1642
rtibia 31.7392
rfoot -14.199 -5.10354
rtoes 0.569694
lfemur -28.8154 6.51856 -20.0692
ltibia 63.5115
lfoot -4.02688 5.40854
ltoes -4.53288
22
root 16.5952 18.8659 12.947 -174.431 3.64934 179.713
lowerback 2.19912 3.88737 0.20483
upperback 1.61895 5.23193 -0.486487
thorax 0.494202 2.63926 -0.698824
lowerneck -4.82048 5.50408 6.80123
upperneck -4.88522 6.72487 -0.308589
head -0.469556 3.10303 -1.13383
rclavicle -7.196e-014 5.1684e-015
rhumerus -38.8097 -12.9345 -78.8851
rradius 37.73
rwrist 10.5233
rhand -22.776 16.1716
rfingers 7.12502
rthumb 3.65938 -13.7767
lclavicle -7.196e-014 5.1684e-015
lhumerus -64.1845 28.7473 37.0849
lradius 30.2752
lwrist 18.4021
lhand 6.07162 26.9136
lfingers 7.12502
lthumb 31.3916 54.2397
rfemur -10.5078 4.97361 24.7272
rtibia 31.4116
rfoot -13.7171 -4.70263
rtoes 0.417213
lfemur -29.806 6.14068 -19.4167
ltibia 62.1997
lfoot -4.21305 5.28664
ltoes -2.73839
23
root 16.5859 18.8775 12.804 -173.818 4.25894 179.837
lowerback 1.93443 4.1299 0.219274
upperback 1.47363 5.5472 -0.503062
thorax 0.500362 2.79331 -0.713987
lowerneck -5.08819 5.63336 6.46733
upperneck -4.97698 6.88505 -0.365523
head -0.457847 3.18402 -1.0864
rclavicle -2.40529e-014 1.68967e-015
rhumerus -38.3138 -11.6456 -79.2103
rradius 38.8537
rwrist 9.24841
rhand -24.2817 20.136
rfingers 7.12502
rthumb 2.20532 -9.83238
lclavicle -2.40529e-014 1.68967e-015
lhumerus -65.0559 28.0487 35.2442
lradius 30.1381
lwrist 16.5221
lhand 8.34064 26.0527
lfingers 7.12502
lthumb 33.5508 52.935
rfemur -10.6564 5.225 24.649
rtibia 31.1525
rfoot -13.1308 -4.20591
rtoes 0.84432
lfemur -31.1902 5.89907 -19.3871
ltibia 60.6918
lfoot -4.59135 5.53737
ltoes -2.0633
